<svg width="1024" height="1024" viewBox="0 0 1024 1024" fill="none" xmlns="http://www.w3.org/2000/svg">
<path d="M224.544 117.862C164.312 117.862 117.856 164.309 117.856 224.533V252.228C117.856 254.438 118.292 256.627 119.137 258.669C119.983 260.711 121.223 262.566 122.786 264.129C124.349 265.692 126.204 266.932 128.246 267.778C130.288 268.623 132.477 269.059 134.687 269.059C139.151 269.059 143.432 267.285 146.588 264.129C149.744 260.973 151.518 256.692 151.518 252.228V224.533C151.518 180.574 180.57 151.523 224.544 151.523H252.222C254.433 151.523 256.621 151.088 258.663 150.242C260.705 149.396 262.561 148.157 264.123 146.594C265.686 145.031 266.926 143.175 267.772 141.133C268.618 139.091 269.053 136.903 269.053 134.693C269.053 132.482 268.618 130.294 267.772 128.252C266.926 126.21 265.686 124.354 264.123 122.791C262.561 121.229 260.705 119.989 258.663 119.143C256.621 118.297 254.433 117.862 252.222 117.862H224.544ZM771.771 117.862C769.561 117.862 767.372 118.297 765.33 119.143C763.288 119.989 761.433 121.229 759.87 122.791C758.307 124.354 757.067 126.21 756.222 128.252C755.376 130.294 754.941 132.482 754.941 134.693C754.941 136.903 755.376 139.091 756.222 141.133C757.067 143.175 758.307 145.031 759.87 146.594C761.433 148.157 763.288 149.396 765.33 150.242C767.372 151.088 769.561 151.523 771.771 151.523H799.45C843.424 151.523 872.476 180.574 872.476 224.533V252.228C872.476 256.692 874.249 260.973 877.405 264.129C880.562 267.285 884.843 269.059 889.307 269.059C891.517 269.059 893.705 268.623 895.747 267.778C897.789 266.932 899.645 265.692 901.208 264.129C902.771 262.566 904.01 260.711 904.856 258.669C905.702 256.627 906.137 254.438 906.137 252.228V224.533C906.137 164.309 859.682 117.862 799.45 117.862H771.771ZM134.687 754.946C132.477 754.946 130.288 755.381 128.246 756.227C126.204 757.073 124.349 758.313 122.786 759.876C121.223 761.439 119.983 763.294 119.137 765.336C118.292 767.378 117.856 769.567 117.856 771.777V799.455C117.856 859.682 164.317 906.143 224.544 906.143H252.222C254.433 906.143 256.621 905.708 258.663 904.862C260.705 904.016 262.561 902.776 264.123 901.213C265.686 899.65 266.926 897.795 267.772 895.753C268.618 893.711 269.053 891.523 269.053 889.312C269.053 887.102 268.618 884.913 267.772 882.871C266.926 880.829 265.686 878.974 264.123 877.411C262.561 875.848 260.705 874.609 258.663 873.763C256.621 872.917 254.433 872.482 252.222 872.482H224.544C180.587 872.482 151.518 843.412 151.518 799.455V771.777C151.518 767.313 149.744 763.032 146.588 759.876C143.432 756.719 139.151 754.946 134.687 754.946ZM889.307 754.946C884.843 754.946 880.562 756.719 877.405 759.876C874.249 763.032 872.476 767.313 872.476 771.777V799.455C872.476 843.411 843.405 872.482 799.45 872.482H771.771C769.561 872.482 767.372 872.917 765.33 873.763C763.288 874.609 761.433 875.848 759.87 877.411C758.307 878.974 757.067 880.829 756.222 882.871C755.376 884.913 754.941 887.102 754.941 889.312C754.941 891.523 755.376 893.711 756.222 895.753C757.067 897.795 758.307 899.65 759.87 901.213C761.433 902.776 763.288 904.016 765.33 904.862C767.372 905.708 769.561 906.143 771.771 906.143H799.45C859.676 906.143 906.137 859.682 906.137 799.455V771.777C906.137 769.567 905.702 767.378 904.856 765.336C904.01 763.294 902.771 761.439 901.208 759.876C899.645 758.313 897.789 757.073 895.747 756.227C893.705 755.381 891.517 754.946 889.307 754.946Z" fill="white"/>
<path d="M512.002 182.263C493.757 182.262 475.833 187.064 460.031 196.186L264.483 309.083C248.682 318.206 235.56 331.328 226.438 347.129C217.315 362.93 212.512 380.855 212.513 399.101V624.895C212.512 643.14 217.315 661.065 226.438 676.866C235.56 692.667 248.682 705.789 264.483 714.912L460.031 827.809C475.832 836.931 493.756 841.734 512.002 841.734C530.247 841.734 548.171 836.931 563.972 827.809L759.512 714.912C775.313 705.789 788.434 692.667 797.557 676.866C806.68 661.065 811.483 643.14 811.482 624.895V399.101C811.483 380.855 806.68 362.93 797.557 347.129C788.435 331.328 775.313 318.206 759.512 309.083L563.972 196.186C548.171 187.064 530.247 182.262 512.002 182.263ZM269.565 374.213C272.609 374.533 275.552 375.49 278.202 377.02L369.749 429.872V549.69C369.749 550.827 370.054 551.943 370.632 552.921C371.21 553.9 372.041 554.705 373.036 555.253C374.032 555.801 375.157 556.072 376.293 556.037C377.429 556.003 378.535 555.664 379.495 555.056L392.129 547.057C394.825 545.349 398.051 544.68 401.204 545.175C404.357 545.669 407.222 547.293 409.267 549.743L449.596 598.079C450.704 599.408 452.195 600.363 453.865 600.814C455.536 601.265 457.304 601.191 458.931 600.602C460.558 600.012 461.963 598.936 462.957 597.519C463.95 596.103 464.483 594.414 464.483 592.684V484.565L479.233 493.081C489.196 498.831 497.469 507.103 503.221 517.065C508.974 527.027 512.002 538.328 512.002 549.832V781.961C512.003 785.796 510.994 789.563 509.077 792.885C507.159 796.206 504.401 798.964 501.08 800.882C497.759 802.799 493.991 803.808 490.156 803.808C486.321 803.807 482.553 802.796 479.233 800.878L278.202 684.808C268.242 679.057 259.971 670.786 254.221 660.826C248.47 650.866 245.443 639.568 245.442 628.067V395.937C245.442 392.876 246.085 389.849 247.329 387.053C248.574 384.257 250.393 381.753 252.667 379.705C254.942 377.656 257.622 376.109 260.533 375.163C263.444 374.217 266.521 373.893 269.565 374.213ZM727.222 581.809C727.717 581.766 728.16 581.851 728.524 582.057C728.888 582.264 729.165 582.588 729.337 583.009L734.473 595.573C735.547 598.197 737.345 600.146 739.727 601.269C742.108 602.391 745.009 602.655 748.201 602.041L763.484 599.109C764.255 598.961 764.925 599.102 765.4 599.512C765.874 599.922 766.13 600.58 766.13 601.394C766.13 602.207 765.874 603.135 765.4 604.047C764.925 604.959 764.255 605.808 763.484 606.475L748.201 619.688C745.008 622.449 742.107 625.781 739.726 629.422C737.344 633.063 735.546 636.915 734.473 640.675L729.337 658.677C729.079 659.587 728.584 660.522 727.921 661.349C727.259 662.176 726.464 662.853 725.647 663.284C724.831 663.714 724.036 663.877 723.375 663.749C722.713 663.62 722.219 663.207 721.962 662.568L716.827 650.005C715.754 647.378 713.956 645.427 711.574 644.303C709.193 643.179 706.292 642.914 703.099 643.527L687.816 646.468C687.045 646.616 686.375 646.475 685.9 646.065C685.425 645.655 685.17 644.997 685.17 644.184C685.17 643.37 685.425 642.442 685.9 641.53C686.375 640.619 687.045 639.769 687.816 639.102L703.099 625.89C706.291 623.128 709.192 619.797 711.574 616.156C713.956 612.514 715.753 608.663 716.827 604.903L721.962 586.901C722.222 585.992 722.718 585.06 723.38 584.235C724.041 583.411 724.835 582.736 725.65 582.307C726.191 582.021 726.727 581.852 727.222 581.809Z" fill="white"/>
</svg>
